# xmcd
#
# Track frame offsets:
#	150
#	11958
#	21296
#	34192
#	48371
#	59793
#	72066
#	81647
#	92611
#	104682
#
# Disc length: 1593 seconds
#
# Revision: 1
# Processed by: cddbd v1.5.2PL0 Copyright (c) Steve Scherf et al.
# Submitted via: audiograbber 1.80.04
#
DISCID=8d06370a
DTITLE=Various Artist - Redneck Country
DYEAR=2006
DGENRE=Country
TTITLE0=Hank Williams - Settin' The Woods On Fire
TTITLE1=Johnny Cash - Luther Played The Boogie
TTITLE2=Merle Haggard - The Fightin' Side Of Me
TTITLE3=Cal Smith - The Lord Knows I'm Drinking
TTITLE4=George Jones - White Lightning
TTITLE5=Johnny Russel - Rednecks, White Socks And Blue Ribbon Beer
TTITLE6=Faron Young - I've Got Five Dollars And It's Saturday Night
TTITLE7=Carl Perkins - Dixie Fried
TTITLE8=Johnny Paycheck - Born Hell Raiser
TTITLE9=Mickey Gilley - A Headache Tomorrow (Or A Heartache Tonight) - Live
EXTD=Redneck Country compilation disc - Direct Source Special Products Inc.
EXTT0=
EXTT1=
EXTT2=
EXTT3=
EXTT4=
EXTT5=
EXTT6=
EXTT7=
EXTT8=
EXTT9=
PLAYORDER=
